Coordinates
version=1
nRows=12
nColumns=33
inDegrees=yes

Units are S.I. units (second, meters, Newtons, ...)
Angles are in degrees.

endheader
time	ground_thorax_rot_x	ground_thorax_rot_y	ground_thorax_rot_z	ground_thorax_tx	ground_thorax_ty	ground_thorax_tz	clav_prot_r	clav_elev_r	scapula_abduction_r	scapula_elevation_r	scapula_upward_rot_r	scapula_winging_r	shoulder_elv_r	plane_of_elev_r	axial_rot_r	elbow_flexion_r	pro_sup_r	wrist_flex_r	wrist_dev_r	clav_prot_l	clav_elev_l	scapula_abduction_l	scapula_elevation_l	scapula_upward_rot_l	scapula_winging_l	shoulder_elv_l	plane_of_elev_l	axial_rot_l	elbow_flexion_l	pro_sup_l	wrist_flex_l	wrist_dev_l
      4.12000000	     24.75274773	     35.61490984	     50.88345568	     83.64133880	    775.83135966	    -44.00056645	     13.13812289	     36.24773013	     28.55745174	     45.00000000	    -45.00000000	   -439.64008446	  -3710.74441776	    159.51320668	     18.12958452	      0.99084041	    165.55032583	     11.33365435	     13.30286253	    -15.40440675	    -45.00000000	    -32.39080474	     45.00000000	    -45.00000000	  -4222.61239105	    -95.80954656	    136.73032886	   -132.21060484	   1068.89488770	    401.17351786	     12.45964482	    -13.56815127
      4.13000000	     24.89594328	     35.75156239	     50.62708278	     83.28631162	    775.36444646	    -44.23578609	     12.88538287	     36.42746930	     28.50520342	     45.00000000	    -45.00000000	   -439.83668246	  -3710.73508097	    159.42972034	     18.61322783	      1.00897573	    165.39815176	     11.41578062	     13.35384910	    -14.88184408	    -45.00000000	    -32.38441240	     45.00000000	    -45.00000000	  -4222.63217349	    -95.86038349	    136.81655208	   -132.65131346	   1068.86984470	    401.02713827	     12.38670767	    -13.78787106
      4.14000000	     24.94198247	     35.86054728	     50.47448968	     82.78731966	    774.91334100	    -44.46379284	     13.03816852	     36.21840146	     28.32584167	     45.00000000	    -45.00000000	   -439.71947638	  -3710.64674277	    159.45357222	     18.78708288	      1.11182112	    165.13098743	     11.30105912	     13.27515116	    -15.29326139	    -45.00000000	    -32.39009539	     45.00000000	    -45.00000000	  -4222.46937500	    -95.80761374	    136.73462379	   -132.82844725	   1068.83890648	    400.96908968	     12.44724903	    -13.64286983
      4.15000000	     25.24212762	     35.88697915	     49.89792258	     82.14949865	    774.47856286	    -44.68403108	     12.82699698	     36.56370693	     28.44351538	     45.00000000	    -45.00000000	   -439.82725062	  -3710.72443539	    159.46367604	     19.15884821	      1.20671120	    164.84855661	     11.32749763	     13.39557983	    -14.94298011	    -45.00000000	    -32.39784847	     45.00000000	    -45.00000000	  -4222.67482911	    -95.84034582	    136.78783953	   -133.09682128	   1068.83652622	    400.89332543	     12.30515251	    -13.93614649
      4.16000000	     25.09461704	     36.05050493	     50.15113370	     81.37316330	    774.05566181	    -44.89687432	     13.05899145	     36.11864074	     28.29840008	     45.00000000	    -45.00000000	   -439.84961962	  -3710.67597844	    159.53968711	     19.18662134	      1.29063245	    164.50889660	     11.17495795	     13.23514323	    -15.33115323	    -45.00000000	    -32.39323313	     45.00000000	    -45.00000000	  -4222.30341164	    -95.69727720	    136.80669944	   -133.20152995	   1068.76730308	    400.96401168	     12.41141264	    -13.64710513
      4.17000000	     25.33758591	     36.16093864	     49.83889182	     80.46368287	    773.64552881	    -45.10007196	     12.91633921	     36.38880516	     28.45130015	     45.00000000	    -45.00000000	   -440.05056928	  -3710.62287726	    159.63759012	     19.54220523	      1.25666907	    164.17110364	     11.23536255	     13.28256591	    -14.99962755	    -45.00000000	    -32.43696469	     45.00000000	    -45.00000000	  -4222.37589851	    -95.79717460	    136.99056033	   -133.36194516	   1068.81675022	    401.01660585	     12.34009018	    -13.92835096
      4.18000000	     25.55527572	     36.15836806	     49.47657349	     79.42233314	    773.24660127	    -45.29288295	     12.77802029	     36.47362198	     28.46711632	     45.00000000	    -45.00000000	   -440.03033893	  -3710.53364578	    159.74731799	     19.95364373	      1.22624258	    163.95259635	     11.20538170	     13.29846117	    -15.14148253	    -45.00000000	    -32.53318582	     45.00000000	    -45.00000000	  -4222.27289566	    -95.83646285	    136.98388596	   -133.47641870	   1068.86106174	    401.15725153	     12.27707380	    -13.96229424
      4.19000000	     25.69133522	     36.24401834	     49.22679072	     78.24638541	    772.85649506	    -45.47502008	     12.88449965	     36.40675235	     28.35238716	     45.00000000	    -45.00000000	   -440.18407851	  -3710.45809241	    159.66205035	     20.19605434	      1.24469355	    163.74976619	     11.17422332	     13.27070857	    -15.03942284	    -45.00000000	    -32.50643144	     45.00000000	    -45.00000000	  -4222.22549588	    -95.76076986	    136.99160261	   -133.66380925	   1068.86423018	    401.36804877	     12.23204882	    -14.01892652
      4.20000000	     25.92180685	     36.22920659	     48.83919987	     76.94363190	    772.47670507	    -45.64482744	     12.75311513	     36.53192416	     28.35505725	     45.00000000	    -45.00000000	   -440.18247355	  -3710.36523181	    159.72958271	     20.65765162	      1.21904514	    163.68034169	     11.16321254	     13.25742649	    -15.08184940	    -45.00000000	    -32.59982109	     45.00000000	    -45.00000000	  -4222.17122579	    -95.76240878	    137.02901827	   -133.82151914	   1068.90596106	    401.62290025	     12.19620668	    -14.09136663
      4.21000000	     26.01778599	     36.30753188	     48.65173173	     75.51366158	    772.10600783	    -45.80215131	     12.85760873	     36.42167138	     28.28681938	     45.00000000	    -45.00000000	   -440.35997255	  -3710.30176978	    159.68531070	     20.87281848	      1.23297338	    163.63958838	     11.14964811	     13.23214456	    -15.01881077	    -45.00000000	    -32.54602842	     45.00000000	    -45.00000000	  -4222.04441020	    -95.67142257	    137.01328304	   -134.01265549	   1068.90898553	    401.93547075	     12.13897109	    -14.13359873
      4.22000000	     26.07774023	     36.37622516	     48.52280646	     73.96025181	    771.74513563	    -45.94666586	     12.81525134	     36.42132020	     28.28214809	     45.00000000	    -45.00000000	   -440.49591891	  -3710.28471902	    159.78512145	     21.21529836	      1.23014199	    163.72320327	     11.18605324	     13.19384357	    -14.93547495	    -45.00000000	    -32.60971861	     45.00000000	    -45.00000000	  -4221.96557172	    -95.59236465	    137.13625524	   -134.14680846	   1068.92457099	    402.30764775	     12.12051143	    -14.19777466
      4.23000000	     26.18095172	     36.40423856	     48.30554313	     72.28248322	    771.39459667	    -46.07857339	     12.88092233	     36.33552682	     28.17379804	     45.00000000	    -45.00000000	   -440.59292011	  -3710.19504579	    159.72658154	     21.51073374	      1.28086308	    163.88515941	     11.18227206	     13.15814534	    -14.85755217	    -45.00000000	    -32.62693234	     45.00000000	    -45.00000000	  -4221.84658281	    -95.48316429	    137.14596306	   -134.35926362	   1068.92171305	    402.72047077	     12.07265314	    -14.24921505
